<?xml version="1.0"?>
<svg width="174" height="26" xmlns="http://www.w3.org/2000/svg">
 <g class="layer">
  <title>Layer 1</title>
  <path d="m23.64,20c2.76,0 5.04,-2.26 4.53,-4.97c-0.32,-1.7 -0.8,-3.37 -1.45,-4.98c-1.26,-3.15 -3.11,-6.02 -5.45,-8.43c-2.33,-2.42 -5.1,-4.33 -8.15,-5.64c-1.51,-0.65 -3.07,-1.14 -4.66,-1.47c-2.7,-0.56 -4.96,1.73 -4.96,4.49l0,16c0,2.76 2.24,5 5,5l15.14,0z" fill="#0f98d8" id="svg_2" transform="matrix(1 0 0 1 0 5) translate(0,40)" />
  <g id="svg_3" transform="rotate(-90.1756 19.5 12.5234) translate(-39, 5)">
   <path d="m10.71,19c-3.01,0 -5.51,-2.19 -4.94,-4.82c0.35,-1.65 0.87,-3.27 1.57,-4.83c1.39,-3.06 3.4,-5.84 5.95,-8.18c2.55,-2.35 5.57,-4.2 8.9,-5.47c1.64,-0.63 3.34,-1.11 5.07,-1.43c2.96,-0.54 5.42,1.68 5.42,4.36l0,15.53c0,2.68 -2.44,4.85 -5.45,4.85l-16.52,0z" fill="#0300ed" id="svg_4"/>
  </g>
  <text fill="#00052b" font-family="Monospace" font-size="32" font-weight="bold" id="svg_5" stroke="#000000" stroke-width="0" text-anchor="middle" transform="matrix(1 0 0 1 0 0) translate(5,40)" x="100" xml:space="preserve" y="20.5">Stockify</text>
 </g>
</svg>
